<svg id="e564171b-fd1b-4a7e-bfb4-ca296c7cb22b" data-name="Capa 3" xmlns="http://www.w3.org/2000/svg" viewBox="0 0 476.25 177.52"><defs><style>.bf304c87-e9a6-48cd-8e26-723adc0c58c7{fill:#b1ce58;}.abc030b3-47ad-410f-8760-0ab8787eda68{fill:#3f3f3f;}.fef8bc62-9d64-4cb7-8c7f-75b6eac90c93{fill:#728d3b;}.e91453e6-463f-4073-b5b7-0f51c1ce586a{fill:#db5826;}.a25964d4-45b2-4cd0-a265-590fcbda92a6{fill:#df8728;}.b95c62dc-2c69-4107-8511-30a1420b32fb{fill:#1d7477;}.ba289cfe-da8c-433d-9aa0-3637f1772689{fill:#fff;}</style></defs><title>CoActuem_Logo</title><path class="bf304c87-e9a6-48cd-8e26-723adc0c58c7" d="M526.84,290.9v47.65c0,13.71-8.38,24.83-18.71,24.83h-9l-36.45,23-.21-23H70c-10.33,0-18.7-11.12-18.7-24.83V290.9Z" transform="translate(-50.59 -208.88)"/><path class="abc030b3-47ad-410f-8760-0ab8787eda68" d="M118.33,255.39a34.76,34.76,0,1,1-.1-21.82H101.67c-2.78-6-9.52-9.82-16.37-9.82-10.91,0-19.63,9.42-19.63,20.83S74.39,265.4,85.3,265.4c6.94,0,13.69-4.06,16.46-10Z" transform="translate(-50.59 -208.88)"/><path class="abc030b3-47ad-410f-8760-0ab8787eda68" d="M260.37,279.59H243.9l-5.2-14.06H212.53l-5.21,14.06H190.81l28.27-69.71h13ZM225.54,230.2,217.13,253H234Z" transform="translate(-50.59 -208.88)"/><path class="abc030b3-47ad-410f-8760-0ab8787eda68" d="M274.6,277.71a21.46,21.46,0,0,1-9.13-8.23A23.5,23.5,0,0,1,262.22,257a24.65,24.65,0,0,1,2.92-12,21.17,21.17,0,0,1,8.76-8.54,29.62,29.62,0,0,1,14.24-3.15,27.48,27.48,0,0,1,12,2.6,23.61,23.61,0,0,1,8.78,7,17.57,17.57,0,0,1,3.68,9.59H297.25a7.7,7.7,0,0,0-2.68-5.28,9.86,9.86,0,0,0-6.43-1.88c-3.74,0-6.43,1.14-8.08,3.4a15.19,15.19,0,0,0,0,16.59q2.46,3.28,8.11,3.28a9.86,9.86,0,0,0,6.43-1.88,7.7,7.7,0,0,0,2.68-5.28h15.31a17.6,17.6,0,0,1-3.68,9.56,23.22,23.22,0,0,1-8.78,7,27.62,27.62,0,0,1-12,2.58A30.4,30.4,0,0,1,274.6,277.71Z" transform="translate(-50.59 -208.88)"/><path class="abc030b3-47ad-410f-8760-0ab8787eda68" d="M338.83,279.59H323.57V246.26h-8.21V234.4h8.21V217.19h15.26V234.4H347v11.86h-8.21Z" transform="translate(-50.59 -208.88)"/><path class="fef8bc62-9d64-4cb7-8c7f-75b6eac90c93" d="M160.27,270.84a1,1,0,0,1-1-1V258.48a1,1,0,0,1,2,0v11.36A1,1,0,0,1,160.27,270.84Z" transform="translate(-50.59 -208.88)"/><path class="e91453e6-463f-4073-b5b7-0f51c1ce586a" d="M141.68,264.45a1,1,0,0,1-.72-.31,1,1,0,0,1,0-1.42l7.54-7.34a1,1,0,0,1,1.4,1.44l-7.54,7.34A1,1,0,0,1,141.68,264.45Z" transform="translate(-50.59 -208.88)"/><path class="a25964d4-45b2-4cd0-a265-590fcbda92a6" d="M179.79,265.15a1,1,0,0,1-.7-.28l-8.16-7.9a1,1,0,0,1,1.4-1.44l8.16,7.9a1,1,0,0,1-.7,1.72Z" transform="translate(-50.59 -208.88)"/><path class="fef8bc62-9d64-4cb7-8c7f-75b6eac90c93" d="M160.27,228.77a1,1,0,0,1-1-1V216.41a1,1,0,1,1,2,0v11.35A1,1,0,0,1,160.27,228.77Z" transform="translate(-50.59 -208.88)"/><path class="e91453e6-463f-4073-b5b7-0f51c1ce586a" d="M173,233.1a1,1,0,0,1-.72-.3,1,1,0,0,1,0-1.42l7.54-7.35a1,1,0,0,1,1.42,0,1,1,0,0,1,0,1.42l-7.54,7.35A1,1,0,0,1,173,233.1Z" transform="translate(-50.59 -208.88)"/><path class="a25964d4-45b2-4cd0-a265-590fcbda92a6" d="M147.75,233.11a1,1,0,0,1-.7-.28l-8.16-7.9a1,1,0,0,1,0-1.42,1,1,0,0,1,1.42,0l8.16,7.9a1,1,0,0,1,0,1.42A1,1,0,0,1,147.75,233.11Z" transform="translate(-50.59 -208.88)"/><path class="b95c62dc-2c69-4107-8511-30a1420b32fb" d="M171.19,255.17H150.27l-.07-.57c0-.19-.56-4.65,1.21-7,1.46-1.94,5.28-2.83,6.73-3.1v-.7a6.66,6.66,0,1,1,4.93-.13v.83c1.45.27,5.27,1.16,6.73,3.1,1.76,2.35,1.45,6.79,1.43,7Zm-19.74-1.31H170c0-1.22-.07-4-1.2-5.49s-5.05-2.48-6.43-2.68l-.56-.08,0-2.88.43-.14a5.31,5.31,0,1,0-3.43,0l.64.12,0,.85v2l-.56.08c-1.38.2-5.23,1.08-6.43,2.68S151.37,252.66,151.45,253.86Z" transform="translate(-50.59 -208.88)"/><path class="b95c62dc-2c69-4107-8511-30a1420b32fb" d="M135.6,244.8a4.58,4.58,0,1,1-4.57-4.58A4.57,4.57,0,0,1,135.6,244.8Z" transform="translate(-50.59 -208.88)"/><path class="a25964d4-45b2-4cd0-a265-590fcbda92a6" d="M185.22,264.26A4.58,4.58,0,1,1,180,260.5,4.59,4.59,0,0,1,185.22,264.26Z" transform="translate(-50.59 -208.88)"/><path class="fef8bc62-9d64-4cb7-8c7f-75b6eac90c93" d="M164.84,213.45a4.58,4.58,0,1,1-4.57-4.57A4.57,4.57,0,0,1,164.84,213.45Z" transform="translate(-50.59 -208.88)"/><path class="e91453e6-463f-4073-b5b7-0f51c1ce586a" d="M187.18,221.8a4.57,4.57,0,1,1-5.59-3.25A4.58,4.58,0,0,1,187.18,221.8Z" transform="translate(-50.59 -208.88)"/><path class="e91453e6-463f-4073-b5b7-0f51c1ce586a" d="M182.76,227.89a4.91,4.91,0,0,1-1.25-9.66,4.83,4.83,0,0,1,1.25-.17,4.91,4.91,0,0,1,4.25,7.38,5,5,0,0,1-4.25,2.45Zm0-9.16a4,4,0,0,0-1.08.15,4.24,4.24,0,0,0,1.08,8.34,4.09,4.09,0,0,0,1.09-.15,4.24,4.24,0,0,0-1.09-8.34Z" transform="translate(-50.59 -208.88)"/><path class="fef8bc62-9d64-4cb7-8c7f-75b6eac90c93" d="M164.84,272.66a4.58,4.58,0,1,0-4.57,4.57A4.58,4.58,0,0,0,164.84,272.66Z" transform="translate(-50.59 -208.88)"/><path class="a25964d4-45b2-4cd0-a265-590fcbda92a6" d="M134.18,222a4.57,4.57,0,1,0,5.57-3.27A4.57,4.57,0,0,0,134.18,222Z" transform="translate(-50.59 -208.88)"/><path class="e91453e6-463f-4073-b5b7-0f51c1ce586a" d="M138.78,268.84a4.58,4.58,0,1,0-3-5.73A4.57,4.57,0,0,0,138.78,268.84Z" transform="translate(-50.59 -208.88)"/><path class="b95c62dc-2c69-4107-8511-30a1420b32fb" d="M185.54,244.8a4.58,4.58,0,1,1,4.58,4.57A4.58,4.58,0,0,1,185.54,244.8Z" transform="translate(-50.59 -208.88)"/><path class="b95c62dc-2c69-4107-8511-30a1420b32fb" d="M147.35,245.72H135.6a1,1,0,0,1,0-2h11.75a1,1,0,1,1,0,2Z" transform="translate(-50.59 -208.88)"/><path class="b95c62dc-2c69-4107-8511-30a1420b32fb" d="M186.09,245.72H174.34a1,1,0,1,1,0-2h11.75a1,1,0,0,1,0,2Z" transform="translate(-50.59 -208.88)"/><path class="abc030b3-47ad-410f-8760-0ab8787eda68" d="M354.44,264.73V234.5h7.16v29.23c0,7,3.6,10.1,9.66,10.1,10.15,0,14.36-8.4,14.36-17.41V234.5h7.16v45.09h-7.16v-7.81a16.79,16.79,0,0,1-15.26,8.81C360.1,280.59,354.44,274.28,354.44,264.73Z" transform="translate(-50.59 -208.88)"/><path class="abc030b3-47ad-410f-8760-0ab8787eda68" d="M403.68,257.37c0-14.36,10.41-23.92,23.57-23.92,13,0,23.57,9.46,23.57,23.57v3H411.14c1.45,8,6.76,13.81,16.41,13.81,7.46,0,12-3.55,14.31-8.2h8c-3.15,8.95-11,15-22.22,15C413.29,280.59,403.68,270.28,403.68,257.37Zm39.64-3.4c-1.1-8-7-13.71-16.07-13.71s-15,5.7-16.11,13.71Z" transform="translate(-50.59 -208.88)"/><path class="abc030b3-47ad-410f-8760-0ab8787eda68" d="M461.78,279.39V234.3h7.16v7.16c2.35-5.11,7.15-8,13.81-8,6.46,0,11.21,2.7,13.76,8.41,2.95-5.81,8.61-8.41,14.86-8.41,9.51,0,14.76,6.36,14.76,16.71v29.23h-7.2V251.52c0-6.76-2.65-10.86-9.11-10.86-5.45,0-11.46,3-11.46,12.61v26.12h-7.2V251.22c0-6.46-2.66-10.56-9.11-10.56-7.61,0-13.11,5.1-13.11,15.66v23.07Z" transform="translate(-50.59 -208.88)"/><path class="abc030b3-47ad-410f-8760-0ab8787eda68" d="M118.33,255.39a34.76,34.76,0,1,1-.1-21.82H101.67c-2.78-6-9.52-9.82-16.37-9.82-10.91,0-19.63,9.42-19.63,20.83S74.39,265.4,85.3,265.4c6.94,0,13.69-4.06,16.46-10Z" transform="translate(-50.59 -208.88)"/><path class="fef8bc62-9d64-4cb7-8c7f-75b6eac90c93" d="M160.27,270.84a1,1,0,0,1-1-1V258.48a1,1,0,0,1,2,0v11.36A1,1,0,0,1,160.27,270.84Z" transform="translate(-50.59 -208.88)"/><path class="e91453e6-463f-4073-b5b7-0f51c1ce586a" d="M141.68,264.45a1,1,0,0,1-.72-.31,1,1,0,0,1,0-1.42l7.54-7.34a1,1,0,0,1,1.4,1.44l-7.54,7.34A1,1,0,0,1,141.68,264.45Z" transform="translate(-50.59 -208.88)"/><path class="a25964d4-45b2-4cd0-a265-590fcbda92a6" d="M179.79,265.15a1,1,0,0,1-.7-.28l-8.16-7.9a1,1,0,0,1,1.4-1.44l8.16,7.9a1,1,0,0,1-.7,1.72Z" transform="translate(-50.59 -208.88)"/><path class="fef8bc62-9d64-4cb7-8c7f-75b6eac90c93" d="M160.27,228.77a1,1,0,0,1-1-1V216.41a1,1,0,1,1,2,0v11.35A1,1,0,0,1,160.27,228.77Z" transform="translate(-50.59 -208.88)"/><path class="e91453e6-463f-4073-b5b7-0f51c1ce586a" d="M173,233.1a1,1,0,0,1-.72-.3,1,1,0,0,1,0-1.42l7.54-7.35a1,1,0,0,1,1.42,0,1,1,0,0,1,0,1.42l-7.54,7.35A1,1,0,0,1,173,233.1Z" transform="translate(-50.59 -208.88)"/><path class="a25964d4-45b2-4cd0-a265-590fcbda92a6" d="M147.75,233.11a1,1,0,0,1-.7-.28l-8.16-7.9a1,1,0,0,1,0-1.42,1,1,0,0,1,1.42,0l8.16,7.9a1,1,0,0,1,0,1.42A1,1,0,0,1,147.75,233.11Z" transform="translate(-50.59 -208.88)"/><path class="b95c62dc-2c69-4107-8511-30a1420b32fb" d="M171.19,255.17H150.27l-.07-.57c0-.19-.56-4.65,1.21-7,1.46-1.94,5.28-2.83,6.73-3.1v-.7a6.66,6.66,0,1,1,4.93-.13v.83c1.45.27,5.27,1.16,6.73,3.1,1.76,2.35,1.45,6.79,1.43,7Zm-19.74-1.31H170c0-1.22-.07-4-1.2-5.49s-5.05-2.48-6.43-2.68l-.56-.08,0-2.88.43-.14a5.31,5.31,0,1,0-3.43,0l.64.12,0,.85v2l-.56.08c-1.38.2-5.23,1.08-6.43,2.68S151.37,252.66,151.45,253.86Z" transform="translate(-50.59 -208.88)"/><path class="b95c62dc-2c69-4107-8511-30a1420b32fb" d="M135.6,244.8a4.58,4.58,0,1,1-4.57-4.58A4.57,4.57,0,0,1,135.6,244.8Z" transform="translate(-50.59 -208.88)"/><path class="a25964d4-45b2-4cd0-a265-590fcbda92a6" d="M185.22,264.26A4.58,4.58,0,1,1,180,260.5,4.59,4.59,0,0,1,185.22,264.26Z" transform="translate(-50.59 -208.88)"/><path class="fef8bc62-9d64-4cb7-8c7f-75b6eac90c93" d="M164.84,213.45a4.58,4.58,0,1,1-4.57-4.57A4.57,4.57,0,0,1,164.84,213.45Z" transform="translate(-50.59 -208.88)"/><path class="e91453e6-463f-4073-b5b7-0f51c1ce586a" d="M187.18,221.8a4.57,4.57,0,1,1-5.59-3.25A4.58,4.58,0,0,1,187.18,221.8Z" transform="translate(-50.59 -208.88)"/><path class="e91453e6-463f-4073-b5b7-0f51c1ce586a" d="M182.76,227.89a4.91,4.91,0,0,1-1.25-9.66,4.83,4.83,0,0,1,1.25-.17,4.91,4.91,0,0,1,4.25,7.38,5,5,0,0,1-4.25,2.45Zm0-9.16a4,4,0,0,0-1.08.15,4.24,4.24,0,0,0,1.08,8.34,4.09,4.09,0,0,0,1.09-.15,4.24,4.24,0,0,0-1.09-8.34Z" transform="translate(-50.59 -208.88)"/><path class="fef8bc62-9d64-4cb7-8c7f-75b6eac90c93" d="M164.84,272.66a4.58,4.58,0,1,0-4.57,4.57A4.58,4.58,0,0,0,164.84,272.66Z" transform="translate(-50.59 -208.88)"/><path class="a25964d4-45b2-4cd0-a265-590fcbda92a6" d="M134.18,222a4.57,4.57,0,1,0,5.57-3.27A4.57,4.57,0,0,0,134.18,222Z" transform="translate(-50.59 -208.88)"/><path class="e91453e6-463f-4073-b5b7-0f51c1ce586a" d="M138.78,268.84a4.58,4.58,0,1,0-3-5.73A4.57,4.57,0,0,0,138.78,268.84Z" transform="translate(-50.59 -208.88)"/><path class="b95c62dc-2c69-4107-8511-30a1420b32fb" d="M185.54,244.8a4.58,4.58,0,1,1,4.58,4.57A4.58,4.58,0,0,1,185.54,244.8Z" transform="translate(-50.59 -208.88)"/><path class="b95c62dc-2c69-4107-8511-30a1420b32fb" d="M147.35,245.72H135.6a1,1,0,0,1,0-2h11.75a1,1,0,1,1,0,2Z" transform="translate(-50.59 -208.88)"/><path class="b95c62dc-2c69-4107-8511-30a1420b32fb" d="M186.09,245.72H174.34a1,1,0,1,1,0-2h11.75a1,1,0,0,1,0,2Z" transform="translate(-50.59 -208.88)"/><path class="ba289cfe-da8c-433d-9aa0-3637f1772689" d="M76.84,353.24V316.16H80.6v4a10.9,10.9,0,0,1,8.92-4.57c6.67,0,11.49,5.28,11.49,12.37s-4.88,12.36-11.49,12.36a10.88,10.88,0,0,1-8.92-4.57v17.48ZM97.26,328c0-5.36-3.59-8.8-8.34-8.8s-8.32,3.55-8.32,8.8,3.59,8.81,8.32,8.81S97.26,333.24,97.26,328Z" transform="translate(-50.59 -208.88)"/><path class="ba289cfe-da8c-433d-9aa0-3637f1772689" d="M105.54,328.15c0-7.53,5.46-12.55,12.36-12.55A12,12,0,0,1,130.26,328v1.57H109.45c.76,4.2,3.55,7.24,8.61,7.24,3.91,0,6.27-1.86,7.51-4.3h4.2c-1.66,4.7-5.75,7.85-11.66,7.85C110.58,340.33,105.54,334.92,105.54,328.15Zm20.79-1.78a8.55,8.55,0,0,0-16.88,0Z" transform="translate(-50.59 -208.88)"/><path class="ba289cfe-da8c-433d-9aa0-3637f1772689" d="M136.29,339.8V316.16H140v3.28a5.44,5.44,0,0,1,5.38-3.84,9.36,9.36,0,0,1,3,.56v4.09h-.26a6.38,6.38,0,0,0-3.07-.92c-2.83,0-5,2.05-5,7.95V339.8Z" transform="translate(-50.59 -208.88)"/><path class="ba289cfe-da8c-433d-9aa0-3637f1772689" d="M164.63,339.8V299.49h3.75V339.8Z" transform="translate(-50.59 -208.88)"/><path class="ba289cfe-da8c-433d-9aa0-3637f1772689" d="M174.5,328c0-7.09,4.83-12.37,11.5-12.37a10.9,10.9,0,0,1,8.92,4.57v-4h3.75V339.8h-3.75v-4a10.9,10.9,0,0,1-8.92,4.57C179.38,340.33,174.5,335.13,174.5,328Zm20.42,0c0-5.25-3.49-8.8-8.32-8.8s-8.34,3.44-8.34,8.8,3.49,8.81,8.34,8.81S194.92,333.35,194.92,328Z" transform="translate(-50.59 -208.88)"/><path class="ba289cfe-da8c-433d-9aa0-3637f1772689" d="M216.49,328.57h3.75c.56,5.12,4.2,8.21,10.87,8.21,6,0,9.08-2.46,9.08-6.71,0-5.49-5.17-6.38-10.47-7.56-5.77-1.31-11.78-2.92-11.78-9.84,0-6.25,4.88-9.95,11.78-9.95s12,3.59,12.94,10.1H238.9c-.65-4.3-4.19-6.56-9-6.56-5.07,0-8.19,2.42-8.19,6.25,0,4.51,4.46,5.64,9.42,6.77,6.12,1.39,12.83,2.68,12.83,10.58,0,6.66-4.72,10.47-12.73,10.47C223.42,340.33,217.41,336.68,216.49,328.57Z" transform="translate(-50.59 -208.88)"/><path class="ba289cfe-da8c-433d-9aa0-3637f1772689" d="M248.42,328c0-7.09,4.83-12.37,11.49-12.37a10.93,10.93,0,0,1,8.93,4.57v-4h3.75V339.8h-3.75v-4a10.92,10.92,0,0,1-8.93,4.57C253.3,340.33,248.42,335.13,248.42,328Zm20.42,0c0-5.25-3.49-8.8-8.32-8.8s-8.35,3.44-8.35,8.8,3.49,8.81,8.35,8.81S268.84,333.35,268.84,328Z" transform="translate(-50.59 -208.88)"/><path class="ba289cfe-da8c-433d-9aa0-3637f1772689" d="M280.74,339.8V299.49h3.75V339.8Z" transform="translate(-50.59 -208.88)"/><path class="ba289cfe-da8c-433d-9aa0-3637f1772689" d="M292.11,332V316.16h3.76v15.32c0,3.7,1.89,5.3,5.06,5.3,5.33,0,7.53-4.4,7.53-9.13V316.16h3.76V339.8h-3.76v-4.09a8.81,8.81,0,0,1-8,4.62C295.08,340.33,292.11,337,292.11,332Z" transform="translate(-50.59 -208.88)"/><path class="ba289cfe-da8c-433d-9aa0-3637f1772689" d="M322.68,339.8V319.65h-5.94v-3.49h5.94V307h3.75v9.19h5.85v3.49h-5.85V339.8Z" transform="translate(-50.59 -208.88)"/><path class="ba289cfe-da8c-433d-9aa0-3637f1772689" d="M366.47,341.4l-11-28.26-5.69,26.66h-3.89l8.56-38.16,12,30.37,12-30.37L387,339.8h-3.86l-5.72-26.66Z" transform="translate(-50.59 -208.88)"/><path class="ba289cfe-da8c-433d-9aa0-3637f1772689" d="M390.56,328.15c0-7.53,5.46-12.55,12.36-12.55A12,12,0,0,1,415.28,328v1.57H394.47c.76,4.2,3.54,7.24,8.61,7.24,3.91,0,6.27-1.86,7.5-4.3h4.2c-1.65,4.7-5.75,7.85-11.65,7.85C395.6,340.33,390.56,334.92,390.56,328.15Zm20.78-1.78a8.54,8.54,0,0,0-16.87,0Z" transform="translate(-50.59 -208.88)"/><path class="ba289cfe-da8c-433d-9aa0-3637f1772689" d="M421.3,339.8V316.16h3.75v4.09a8.83,8.83,0,0,1,8-4.65c5.38,0,8.32,3.34,8.32,8.35V339.8h-3.75V324.48c0-3.7-1.89-5.31-5-5.31-5.33,0-7.54,4.41-7.54,9.14V339.8Z" transform="translate(-50.59 -208.88)"/><path class="ba289cfe-da8c-433d-9aa0-3637f1772689" d="M451.37,339.8V319.65h-5.94v-3.49h5.94V307h3.75v9.19H461v3.49h-5.85V339.8Z" transform="translate(-50.59 -208.88)"/><path class="ba289cfe-da8c-433d-9aa0-3637f1772689" d="M463.5,328c0-7.09,4.83-12.37,11.5-12.37a10.92,10.92,0,0,1,8.92,4.57v-4h3.75V339.8h-3.75v-4a10.91,10.91,0,0,1-8.92,4.57C468.38,340.33,463.5,335.13,463.5,328Zm20.42,0c0-5.25-3.49-8.8-8.32-8.8s-8.35,3.44-8.35,8.8,3.49,8.81,8.35,8.81S483.92,333.35,483.92,328Z" transform="translate(-50.59 -208.88)"/><path class="ba289cfe-da8c-433d-9aa0-3637f1772689" d="M495.82,339.8V299.49h3.76V339.8Z" transform="translate(-50.59 -208.88)"/></svg>