<svg id="bee95742-1884-447d-90a6-a7a540cd838e" data-name="Capa 3" xmlns="http://www.w3.org/2000/svg" viewBox="0 0 354.48 124.67"><defs><style>.a4ef26ed-e8de-43ae-872d-919aa9cd99bf{fill:none;}.e27d499f-8387-47af-a978-e3c4d2836c50{fill:#3f3f3f;}.acde47d9-317a-4592-8096-b67c17c13913{fill:#ffd500;}.efd376d6-9f53-4419-adf6-40858e87d9fc{fill:#1d7477;}.f08e4cd3-2eea-4a82-965a-a3c393eab6d8{fill:#a1c639;}</style></defs><title>Logo CoActuem_svg_cas</title><polygon class="a4ef26ed-e8de-43ae-872d-919aa9cd99bf" points="111.78 13.68 106.38 28.28 117.2 28.28 111.78 13.68"/><path class="a4ef26ed-e8de-43ae-872d-919aa9cd99bf" d="M151.44,177.31a6.51,6.51,0,0,0-.77-3.52c-.77-1-3.24-1.6-4.13-1.73l-.36-.05,0-1.84.27-.09a3.42,3.42,0,1,0-2.2,0l.41.08V172l-.36.05c-.88.13-3.35.7-4.12,1.73a5.94,5.94,0,0,0-.65,3.52Z" transform="translate(-75.32 -148.45)"/><path class="e27d499f-8387-47af-a978-e3c4d2836c50" d="M97.59,193.62a22.34,22.34,0,0,0,21.19-15.33H108.15a11.83,11.83,0,0,1-10.56,6.42c-7,0-12.6-6-12.6-13.36S90.59,158,97.59,158a11.58,11.58,0,0,1,10.5,6.3h10.62a22.27,22.27,0,1,0-21.12,29.33Z" transform="translate(-75.32 -148.45)"/><path class="e27d499f-8387-47af-a978-e3c4d2836c50" d="M175.41,193.81l3.34-9h16.79l3.34,9h10.56L191.3,149.1H183l-18.14,44.71Zm11.69-31.68,5.42,14.6H181.7Z" transform="translate(-75.32 -148.45)"/><path class="e27d499f-8387-47af-a978-e3c4d2836c50" d="M218.57,192.61a19.55,19.55,0,0,0,8.69,1.84,17.75,17.75,0,0,0,7.67-1.65,14.78,14.78,0,0,0,5.63-4.48,11.2,11.2,0,0,0,2.36-6.13H233.1a4.9,4.9,0,0,1-1.72,3.39,6.32,6.32,0,0,1-4.12,1.2q-3.63,0-5.2-2.1a9.72,9.72,0,0,1,0-10.64q1.59-2.19,5.19-2.19a6.32,6.32,0,0,1,4.12,1.21,4.9,4.9,0,0,1,1.72,3.39h9.82a11.17,11.17,0,0,0-2.36-6.15,15.07,15.07,0,0,0-5.63-4.48,17.62,17.62,0,0,0-7.67-1.67,19,19,0,0,0-9.14,2,13.54,13.54,0,0,0-5.61,5.48,15.71,15.71,0,0,0-1.88,7.68,15.12,15.12,0,0,0,2.08,8A13.84,13.84,0,0,0,218.57,192.61Z" transform="translate(-75.32 -148.45)"/><polygon class="e27d499f-8387-47af-a978-e3c4d2836c50" points="174.66 45.36 184.45 45.36 184.45 23.98 189.72 23.98 189.72 16.38 184.45 16.38 184.45 5.33 174.66 5.33 174.66 16.38 169.4 16.38 169.4 23.98 174.66 23.98 174.66 45.36"/><path class="acde47d9-317a-4592-8096-b67c17c13913" d="M138.81,178.15h13.42l0-.39c0-.12.21-3-.92-4.48-.93-1.24-3.39-1.81-4.32-2v-.53a4.26,4.26,0,1,0-3.15.08v.45c-.93.17-3.39.74-4.32,2-1.14,1.52-.8,4.38-.78,4.5Zm1.41-4.36c.77-1,3.24-1.6,4.12-1.73l.36-.05v-1.82l-.41-.08a3.43,3.43,0,1,1,2.2,0l-.27.09,0,1.84.36.05c.89.13,3.36.69,4.13,1.73a6.51,6.51,0,0,1,.77,3.52H139.57A5.94,5.94,0,0,1,140.22,173.79Z" transform="translate(-75.32 -148.45)"/><path class="efd376d6-9f53-4419-adf6-40858e87d9fc" d="M128.76,171.44a.63.63,0,0,0,.58.63,2.72,2.72,0,0,0,.06-.58,2.93,2.93,0,0,0-.08-.67A.63.63,0,0,0,128.76,171.44Z" transform="translate(-75.32 -148.45)"/><path class="acde47d9-317a-4592-8096-b67c17c13913" d="M136.94,172.09a.65.65,0,1,0,0-1.29H129.4l-.08,0a2.94,2.94,0,1,0,0,1.25l.06,0Z" transform="translate(-75.32 -148.45)"/><path class="acde47d9-317a-4592-8096-b67c17c13913" d="M137.69,178.28l-3.6,3.51a2.74,2.74,0,0,0-.91-.48,2.93,2.93,0,1,0,1.93,3.67,2.88,2.88,0,0,0-.19-2.2l3.67-3.58a.64.64,0,1,0-.9-.92Z" transform="translate(-75.32 -148.45)"/><path class="acde47d9-317a-4592-8096-b67c17c13913" d="M153.41,164a.66.66,0,0,0,.45-.18l3.9-3.8a3.15,3.15,0,0,0,1.9.64,3.2,3.2,0,0,0,2.72-1.57,3.16,3.16,0,0,0-2.72-4.74,3.22,3.22,0,0,0-.81.11,3.1,3.1,0,0,0-1.93,4.58l-4,3.86a.65.65,0,0,0,0,.91A.62.62,0,0,0,153.41,164Z" transform="translate(-75.32 -148.45)"/><path class="acde47d9-317a-4592-8096-b67c17c13913" d="M157.85,181.57a3,3,0,0,0-1.13.45L153,178.38a.64.64,0,0,0-.9.92l3.77,3.65a2.92,2.92,0,1,0,2-1.38Z" transform="translate(-75.32 -148.45)"/><path class="acde47d9-317a-4592-8096-b67c17c13913" d="M145.23,148.45a2.93,2.93,0,0,0-.65,5.79v6.33a.65.65,0,0,0,1.29,0v-6.33a2.93,2.93,0,0,0-.64-5.79Z" transform="translate(-75.32 -148.45)"/><path class="acde47d9-317a-4592-8096-b67c17c13913" d="M145.87,186.51v-6.24a.65.65,0,0,0-1.29,0v6.24a2.94,2.94,0,1,0,1.29,0Z" transform="translate(-75.32 -148.45)"/><path class="acde47d9-317a-4592-8096-b67c17c13913" d="M130.59,160.45a2.91,2.91,0,0,0,2.3-.37l3.86,3.74a.64.64,0,0,0,.45.18.66.66,0,0,0,.46-.2.65.65,0,0,0,0-.91l-3.85-3.72a2.9,2.9,0,0,0,.37-.82,2.93,2.93,0,1,0-3.58,2.1Z" transform="translate(-75.32 -148.45)"/><path class="acde47d9-317a-4592-8096-b67c17c13913" d="M164.38,168.56a2.92,2.92,0,0,0-2.84,2.24h-7.29a.65.65,0,0,0,0,1.29h7.25a2.94,2.94,0,1,0,2.88-3.53Z" transform="translate(-75.32 -148.45)"/><path class="f08e4cd3-2eea-4a82-965a-a3c393eab6d8" d="M239.45,222.77c-3.23,0-5.68,2.34-5.68,6s2.38,6,5.68,6,5.66-2.34,5.66-6S242.73,222.77,239.45,222.77Z" transform="translate(-75.32 -148.45)"/><path class="f08e4cd3-2eea-4a82-965a-a3c393eab6d8" d="M287,222.77c-3.23,0-5.68,2.34-5.68,6s2.38,6,5.68,6,5.66-2.34,5.66-6S290.32,222.77,287,222.77Z" transform="translate(-75.32 -148.45)"/><path class="f08e4cd3-2eea-4a82-965a-a3c393eab6d8" d="M189.17,222.77c-3.23,0-5.68,2.34-5.68,6s2.37,6,5.68,6,5.66-2.34,5.66-6S192.45,222.77,189.17,222.77Z" transform="translate(-75.32 -148.45)"/><path class="f08e4cd3-2eea-4a82-965a-a3c393eab6d8" d="M152.6,222.77c-3.23,0-5.68,2.34-5.68,6s2.38,6,5.68,6,5.66-2.34,5.66-6S155.89,222.77,152.6,222.77Z" transform="translate(-75.32 -148.45)"/><path class="f08e4cd3-2eea-4a82-965a-a3c393eab6d8" d="M120.56,222.77c-3.24,0-5.68,2.34-5.68,6s2.37,6,5.68,6,5.66-2.34,5.66-6S123.84,222.77,120.56,222.77Z" transform="translate(-75.32 -148.45)"/><path class="f08e4cd3-2eea-4a82-965a-a3c393eab6d8" d="M100.91,222.77c-3.29,0-5.66,2.41-5.66,6s2.44,6,5.66,6,5.68-2.42,5.68-6S104.14,222.77,100.91,222.77Z" transform="translate(-75.32 -148.45)"/><path class="f08e4cd3-2eea-4a82-965a-a3c393eab6d8" d="M395.2,222.77c-3.23,0-5.67,2.34-5.67,6s2.37,6,5.67,6,5.67-2.34,5.67-6S398.49,222.77,395.2,222.77Z" transform="translate(-75.32 -148.45)"/><path class="f08e4cd3-2eea-4a82-965a-a3c393eab6d8" d="M345.76,222.77a5.5,5.5,0,0,0-5.75,4.9h11.48A5.45,5.45,0,0,0,345.76,222.77Z" transform="translate(-75.32 -148.45)"/><path class="f08e4cd3-2eea-4a82-965a-a3c393eab6d8" d="M75.32,201.94v35.52c0,10.22,6.25,18.5,14,18.5H381.81l.16,17.16L409.14,256h6.72c7.7,0,13.94-8.28,13.94-18.5V201.94Zm26,35.68a7.72,7.72,0,0,1-5.62-2.34v11.13H92.24V220.26H95.7v2a7.76,7.76,0,0,1,5.62-2.35c4.79,0,8.28,3.73,8.28,8.87S106.11,237.62,101.32,237.62Zm27.91-.35h-3.47v-2a7.72,7.72,0,0,1-5.62,2.34c-4.79,0-8.27-3.73-8.27-8.86s3.48-8.87,8.27-8.87a7.76,7.76,0,0,1,5.62,2.35v-2h3.47ZM143,224h-.76l-.1-.06a3.94,3.94,0,0,0-1.87-.56c-2,0-3,1.66-3,4.95v9h-3.47v-17h3.47v1c1.18-1.31,3.13-1.74,5.39-1l.31.1Zm18.25,13.31H157.8v-2a7.71,7.71,0,0,1-5.61,2.34c-4.8,0-8.28-3.73-8.28-8.86s3.48-8.87,8.28-8.87a7.72,7.72,0,0,1,5.61,2.35v-2h3.47Zm16,0h-3.47V208.92h3.47Zm20.61,0h-3.47v-2a7.71,7.71,0,0,1-5.61,2.34c-4.8,0-8.28-3.73-8.28-8.86s3.48-8.87,8.28-8.87a7.76,7.76,0,0,1,5.61,2.35v-2h3.47Zm21.68.35c-6.05,0-9.87-3.06-10.48-8.4l0-.51h3.47l0,.41c.36,3.39,2.76,5.18,6.93,5.18,2.61,0,5.73-.72,5.73-4.12,0-3.2-2.92-3.84-6.3-4.59l-.47-.1c-3.54-.81-8.38-1.91-8.38-7.14,0-4.39,3.33-7.23,8.48-7.23s8.62,2.78,9.25,7.27l.08.52h-3.47l-.06-.39c-.4-2.59-2.47-4.07-5.7-4.07s-5.11,1.45-5.11,3.79c0,2.59,2.4,3.33,6.06,4.16l.36.08c4.09.93,8.72,2,8.72,7.56C228.63,234.79,225.23,237.62,219.52,237.62Zm28.6-.35h-3.47v-2a7.71,7.71,0,0,1-5.61,2.34c-4.8,0-8.28-3.73-8.28-8.86s3.48-8.87,8.28-8.87a7.76,7.76,0,0,1,5.61,2.35v-2h3.47Zm8.09,0h-3.46V208.92h3.46Zm18.87,0h-3.47v-1.83a6.41,6.41,0,0,1-5,2.18c-3.79,0-6.14-2.34-6.14-6.11V220.26H264v10.89c0,2.15.95,3.15,3,3.15,3.44,0,4.67-3,4.67-5.76v-8.28h3.47Zm20.63,0h-3.47v-2a7.72,7.72,0,0,1-5.62,2.34c-4.79,0-8.28-3.73-8.28-8.86s3.49-8.87,8.28-8.87a7.76,7.76,0,0,1,5.62,2.35V208.92h3.47Zm36.23,0-3.65-17L321,239.16l-7.33-18.9-3.64,17h-3.58l6.27-28,8.28,21,8.27-21,6.27,28Zm22.69-7H340.58a5,5,0,0,0,5.29,4,4.88,4.88,0,0,0,4.7-2.68l.13-.25h3.78l-.22.61a8.42,8.42,0,0,1-8.36,5.64c-5.22,0-9-3.67-9-8.74a8.87,8.87,0,1,1,17.74-.12Zm17.76,7h-3.47V226.38c0-2.15-.95-3.15-3-3.15-3.45,0-4.67,3-4.67,5.76v8.28h-3.47v-17h3.47v1.82a6.35,6.35,0,0,1,5-2.19c3.77,0,6.12,2.35,6.12,6.13Zm13.32-13.72h-4v13.72h-3.47V223.55h-4v-3.29h4V214h3.47v6.25h4Zm18.17,13.72h-3.47v-2a7.72,7.72,0,0,1-5.62,2.34c-4.79,0-8.27-3.73-8.27-8.86s3.48-8.87,8.27-8.87a7.76,7.76,0,0,1,5.62,2.35v-2h3.47Zm8.09,0H408.5V208.92H412Z" transform="translate(-75.32 -148.45)"/><path class="e27d499f-8387-47af-a978-e3c4d2836c50" d="M271.65,184.17V164.76h4.14v18.77c0,4.53,2.08,6.49,5.58,6.49,5.87,0,8.3-5.4,8.3-11.19V164.76h4.14v29h-4.14v-5c-1.85,3.51-4.74,5.66-8.82,5.66C274.92,194.36,271.65,190.31,271.65,184.17Z" transform="translate(-75.32 -148.45)"/><path class="e27d499f-8387-47af-a978-e3c4d2836c50" d="M299.7,179.22c0-8.68,5.32-15.14,12.67-15.14,4,0,7.34,2,9.83,5.59v-4.91h4.14v29H322.2v-4.95c-2.49,3.63-5.87,5.59-9.83,5.59C305.08,194.36,299.7,188,299.7,179.22Zm22.5,0c0-6.43-3.85-10.77-9.17-10.77s-9.2,4.21-9.2,10.77S307.68,190,313,190,322.2,185.81,322.2,179.22Z" transform="translate(-75.32 -148.45)"/><path class="e27d499f-8387-47af-a978-e3c4d2836c50" d="M334.43,193.59v-29h4.13v4.59a8.09,8.09,0,0,1,8-5.14,8,8,0,0,1,7.95,5.4,9,9,0,0,1,8.59-5.4c5.5,0,8.54,4.08,8.54,10.74v18.77h-4.17V175.68c0-4.34-1.53-7-5.26-7-3.16,0-6.63,1.9-6.63,8.1v16.78h-4.16v-18.1c0-4.15-1.54-6.78-5.27-6.78-4.39,0-7.58,3.28-7.58,10.06v14.82Z" transform="translate(-75.32 -148.45)"/><path class="e27d499f-8387-47af-a978-e3c4d2836c50" d="M376.74,179.22c0-9,6-15.14,13.62-15.14S404,170.16,404,179.22c0,9.35-6.27,15.14-13.62,15.14S376.74,188.45,376.74,179.22Zm23.08,0c0-6.69-4.2-10.77-9.46-10.77s-9.49,4-9.49,10.77,4.2,10.8,9.49,10.8S399.82,186,399.82,179.22Z" transform="translate(-75.32 -148.45)"/><path class="e27d499f-8387-47af-a978-e3c4d2836c50" d="M407.59,184.3h4.14c0,4.47,2.92,6.14,6.65,6.14,4,0,5.78-1.93,5.78-4.37,0-7.17-15.73-2.61-15.73-13.47,0-5.59,4.14-8.52,9.4-8.52s9.2,3,9.49,8.52h-4.17c-.23-3.06-2.6-4.57-5.32-4.57-3.44,0-5.26,1.93-5.26,4.15,0,6.53,15.76,2.19,15.76,13.44,0,6.07-4.57,8.74-10.27,8.74C411.9,194.36,407.88,191.6,407.59,184.3Z" transform="translate(-75.32 -148.45)"/></svg>