<svg id="be3695d6-f24d-4d48-8e37-d3d73d3cab9b" data-name="Capa 2" xmlns="http://www.w3.org/2000/svg" viewBox="0 0 355.28 132.63"><defs><style>.a74c672a-0440-49c0-b498-0d9386a94ff2{fill:#a2c638;}.b570439d-a9cb-445c-ae59-34d94949f89b{fill:#3f3f3f;}.f877dc84-0787-44cd-b817-a151dc9e2b60{fill:#ffd500;}.a5a78952-2d73-496e-b87e-72e43bf7d921{fill:#fff;}</style></defs><title>Logo amarillo</title><path class="a74c672a-0440-49c0-b498-0d9386a94ff2" d="M440.8,204.65v35.6c0,10.24-6.26,18.55-14,18.55h-6.73L392.86,276l-.16-17.2H99.5c-7.72,0-14-8.31-14-18.55v-35.6Z" transform="translate(-85.52 -143.37)"/><path class="b570439d-a9cb-445c-ae59-34d94949f89b" d="M136.24,178.12a26,26,0,1,1-.08-16.31H123.79c-2.08-4.51-7.11-7.33-12.23-7.33-8.15,0-14.66,7-14.66,15.56s6.51,15.56,14.66,15.56a13.77,13.77,0,0,0,12.3-7.48Z" transform="translate(-85.52 -143.37)"/><path class="b570439d-a9cb-445c-ae59-34d94949f89b" d="M241.72,196.2h-12.3l-3.89-10.51H206l-3.89,10.51H189.75l21.12-52.08h9.72Zm-26-36.9-6.29,17H222Z" transform="translate(-85.52 -143.37)"/><path class="b570439d-a9cb-445c-ae59-34d94949f89b" d="M252.35,194.79a16,16,0,0,1-6.82-6.15,17.52,17.52,0,0,1-2.43-9.3,18.43,18.43,0,0,1,2.19-9,15.71,15.71,0,0,1,6.54-6.37,22.1,22.1,0,0,1,10.64-2.36,20.39,20.39,0,0,1,8.93,1.95,17.49,17.49,0,0,1,6.56,5.21,13,13,0,0,1,2.75,7.16H269.27a5.76,5.76,0,0,0-2-3.94,7.33,7.33,0,0,0-4.8-1.41q-4.2,0-6,2.55a11.35,11.35,0,0,0,0,12.39q1.83,2.44,6.06,2.45a7.38,7.38,0,0,0,4.8-1.4,5.78,5.78,0,0,0,2-4h11.44A13.06,13.06,0,0,1,278,189.8,17.23,17.23,0,0,1,271.4,195a20.65,20.65,0,0,1-8.93,1.92A22.65,22.65,0,0,1,252.35,194.79Z" transform="translate(-85.52 -143.37)"/><path class="b570439d-a9cb-445c-ae59-34d94949f89b" d="M300.34,196.2h-11.4V171.3H282.8v-8.86h6.14V149.58h11.4v12.86h6.13v8.86h-6.13Z" transform="translate(-85.52 -143.37)"/><path class="f877dc84-0787-44cd-b817-a151dc9e2b60" d="M166.93,189.66a.75.75,0,0,1-.75-.75v-8.48a.75.75,0,0,1,1.5,0v8.48A.74.74,0,0,1,166.93,189.66Z" transform="translate(-85.52 -143.37)"/><path class="f877dc84-0787-44cd-b817-a151dc9e2b60" d="M153,184.88a.73.73,0,0,1-.53-.22.75.75,0,0,1,0-1.06l5.63-5.49a.77.77,0,0,1,1.07,0,.75.75,0,0,1,0,1.06l-5.63,5.49A.77.77,0,0,1,153,184.88Z" transform="translate(-85.52 -143.37)"/><path class="f877dc84-0787-44cd-b817-a151dc9e2b60" d="M181.52,185.41a.73.73,0,0,1-.52-.21l-6.1-5.9a.75.75,0,1,1,1-1.08l6.09,5.9a.75.75,0,0,1,0,1.06A.73.73,0,0,1,181.52,185.41Z" transform="translate(-85.52 -143.37)"/><path class="f877dc84-0787-44cd-b817-a151dc9e2b60" d="M166.93,158.23a.76.76,0,0,1-.75-.75V149a.75.75,0,0,1,1.5,0v8.49A.75.75,0,0,1,166.93,158.23Z" transform="translate(-85.52 -143.37)"/><path class="f877dc84-0787-44cd-b817-a151dc9e2b60" d="M176.46,161.47a.78.78,0,0,1-.54-.23.75.75,0,0,1,0-1.06l5.63-5.49a.75.75,0,0,1,1.06,0,.75.75,0,0,1,0,1.06L177,161.25A.74.74,0,0,1,176.46,161.47Z" transform="translate(-85.52 -143.37)"/><path class="f877dc84-0787-44cd-b817-a151dc9e2b60" d="M157.58,161.48a.7.7,0,0,1-.52-.22l-6.1-5.9a.75.75,0,0,1,1-1.08l6.09,5.91a.75.75,0,0,1,0,1.06A.76.76,0,0,1,157.58,161.48Z" transform="translate(-85.52 -143.37)"/><path class="f877dc84-0787-44cd-b817-a151dc9e2b60" d="M175.09,178H159.46l-.05-.42c0-.15-.42-3.47.91-5.24,1.08-1.45,3.94-2.11,5-2.32v-.52a5,5,0,1,1,3.67-.09V170c1.09.21,3.94.87,5,2.32,1.32,1.75,1.09,5.07,1.08,5.21Zm-14.75-1h13.83c0-.91-.06-3-.9-4.1s-3.77-1.86-4.81-2l-.41-.06,0-2.15.32-.11a3.94,3.94,0,0,0,2.67-3.75,4,4,0,1,0-5.23,3.79l.48.09v2.13l-.42.06c-1,.15-3.9.81-4.8,2S160.28,176.08,160.34,177Z" transform="translate(-85.52 -143.37)"/><path class="f877dc84-0787-44cd-b817-a151dc9e2b60" d="M148.5,170.21a3.42,3.42,0,1,1-3.41-3.42A3.41,3.41,0,0,1,148.5,170.21Z" transform="translate(-85.52 -143.37)"/><path class="f877dc84-0787-44cd-b817-a151dc9e2b60" d="M185.57,184.75a3.42,3.42,0,1,1-3.93-2.81A3.41,3.41,0,0,1,185.57,184.75Z" transform="translate(-85.52 -143.37)"/><path class="f877dc84-0787-44cd-b817-a151dc9e2b60" d="M170.35,146.78a3.42,3.42,0,1,1-3.42-3.41A3.42,3.42,0,0,1,170.35,146.78Z" transform="translate(-85.52 -143.37)"/><path class="f877dc84-0787-44cd-b817-a151dc9e2b60" d="M187,153a3.42,3.42,0,1,1-4.18-2.43A3.4,3.4,0,0,1,187,153Z" transform="translate(-85.52 -143.37)"/><path class="f877dc84-0787-44cd-b817-a151dc9e2b60" d="M183.74,157.57a3.67,3.67,0,0,1-.94-7.21,3.38,3.38,0,0,1,.94-.13,3.67,3.67,0,0,1,.94,7.22A3.79,3.79,0,0,1,183.74,157.57Zm0-6.84a3.17,3.17,0,0,0,0,6.34,3.22,3.22,0,0,0,.81-.11,3.16,3.16,0,0,0,2.25-3.87A3.18,3.18,0,0,0,183.74,150.73Z" transform="translate(-85.52 -143.37)"/><path class="f877dc84-0787-44cd-b817-a151dc9e2b60" d="M170.35,191a3.42,3.42,0,1,0-3.42,3.42A3.42,3.42,0,0,0,170.35,191Z" transform="translate(-85.52 -143.37)"/><path class="f877dc84-0787-44cd-b817-a151dc9e2b60" d="M147.44,153.17a3.42,3.42,0,1,0,4.17-2.44A3.41,3.41,0,0,0,147.44,153.17Z" transform="translate(-85.52 -143.37)"/><path class="f877dc84-0787-44cd-b817-a151dc9e2b60" d="M150.88,188.16a3.42,3.42,0,1,0-2.25-4.28A3.4,3.4,0,0,0,150.88,188.16Z" transform="translate(-85.52 -143.37)"/><path class="f877dc84-0787-44cd-b817-a151dc9e2b60" d="M185.82,170.21a3.42,3.42,0,1,1,3.42,3.41A3.42,3.42,0,0,1,185.82,170.21Z" transform="translate(-85.52 -143.37)"/><path class="f877dc84-0787-44cd-b817-a151dc9e2b60" d="M157.28,170.89H148.5a.75.75,0,0,1,0-1.5h8.78a.75.75,0,1,1,0,1.5Z" transform="translate(-85.52 -143.37)"/><path class="f877dc84-0787-44cd-b817-a151dc9e2b60" d="M186.22,170.89h-8.78a.75.75,0,0,1,0-1.5h8.78a.75.75,0,1,1,0,1.5Z" transform="translate(-85.52 -143.37)"/><path class="b570439d-a9cb-445c-ae59-34d94949f89b" d="M313.93,185.09V162.51h5.34v21.84c0,5.27,2.69,7.55,7.22,7.55,7.59,0,10.73-6.28,10.73-13V162.51h5.34V196.2h-5.34v-5.84a12.55,12.55,0,0,1-11.41,6.58C318.15,196.94,313.93,192.23,313.93,185.09Z" transform="translate(-85.52 -143.37)"/><path class="b570439d-a9cb-445c-ae59-34d94949f89b" d="M350,179.6c0-10.73,7.78-17.87,17.61-17.87s17.61,7.06,17.61,17.61v2.24H355.55c1.09,6,5.05,10.32,12.27,10.32,5.57,0,8.93-2.66,10.69-6.13h6c-2.36,6.69-8.19,11.17-16.6,11.17C357.16,196.94,350,189.24,350,179.6Zm29.61-2.54c-.82-6-5.19-10.25-12-10.25s-11.18,4.26-12,10.25Z" transform="translate(-85.52 -143.37)"/><path class="b570439d-a9cb-445c-ae59-34d94949f89b" d="M392.73,196.05V162.36h5.34v5.35c1.76-3.81,5.35-6,10.32-6s8.37,2,10.28,6.28c2.21-4.34,6.43-6.28,11.1-6.28,7.11,0,11,4.75,11,12.48v21.84h-5.38V175.22c0-5-2-8.11-6.8-8.11-4.08,0-8.57,2.21-8.57,9.42v19.52h-5.38V175c0-4.82-2-7.89-6.8-7.89-5.69,0-9.8,3.81-9.8,11.7v17.24Z" transform="translate(-85.52 -143.37)"/><path class="a5a78952-2d73-496e-b87e-72e43bf7d921" d="M104.61,251.22V223.51h2.8v3a8.17,8.17,0,0,1,6.67-3.41c5,0,8.59,3.94,8.59,9.24s-3.65,9.24-8.59,9.24a8.16,8.16,0,0,1-6.67-3.42v13.06Zm15.25-18.88c0-4-2.68-6.57-6.23-6.57s-6.22,2.65-6.22,6.57,2.69,6.59,6.22,6.59S119.86,236.28,119.86,232.34Z" transform="translate(-85.52 -143.37)"/><path class="a5a78952-2d73-496e-b87e-72e43bf7d921" d="M126.05,232.48a9.24,9.24,0,1,1,18.47-.14v1.17H129a6.11,6.11,0,0,0,6.43,5.42,5.84,5.84,0,0,0,5.61-3.22h3.14a8.72,8.72,0,0,1-8.71,5.87C129.81,241.58,126.05,237.54,126.05,232.48Zm15.53-1.34a6.39,6.39,0,0,0-12.61,0Z" transform="translate(-85.52 -143.37)"/><path class="a5a78952-2d73-496e-b87e-72e43bf7d921" d="M149,241.18V223.51h2.8V226a4.07,4.07,0,0,1,4-2.86,7.21,7.21,0,0,1,2.24.41v3.06h-.2a4.71,4.71,0,0,0-2.29-.68c-2.12,0-3.77,1.53-3.77,5.94v9.35Z" transform="translate(-85.52 -143.37)"/><path class="a5a78952-2d73-496e-b87e-72e43bf7d921" d="M170.19,241.18V211.06H173v30.12Z" transform="translate(-85.52 -143.37)"/><path class="a5a78952-2d73-496e-b87e-72e43bf7d921" d="M177.57,232.34c0-5.3,3.61-9.24,8.59-9.24a8.19,8.19,0,0,1,6.67,3.41v-3h2.8v17.67h-2.8v-3a8.17,8.17,0,0,1-6.67,3.42C181.22,241.58,177.57,237.69,177.57,232.34Zm15.26,0c0-3.92-2.61-6.57-6.22-6.57s-6.24,2.57-6.24,6.57,2.61,6.59,6.24,6.59S192.83,236.36,192.83,232.34Z" transform="translate(-85.52 -143.37)"/><path class="a5a78952-2d73-496e-b87e-72e43bf7d921" d="M208.94,232.79h2.8c.41,3.82,3.14,6.14,8.12,6.14,4.49,0,6.79-1.85,6.79-5,0-4.1-3.87-4.77-7.83-5.65-4.31-1-8.8-2.18-8.8-7.36,0-4.66,3.64-7.43,8.8-7.43s9,2.69,9.67,7.55h-2.8c-.49-3.22-3.14-4.9-6.75-4.9-3.79,0-6.12,1.8-6.12,4.67,0,3.37,3.34,4.21,7,5.06,4.57,1,9.59,2,9.59,7.9,0,5-3.53,7.83-9.51,7.83C214.12,241.58,209.62,238.85,208.94,232.79Z" transform="translate(-85.52 -143.37)"/><path class="a5a78952-2d73-496e-b87e-72e43bf7d921" d="M232.79,232.34c0-5.3,3.61-9.24,8.59-9.24a8.17,8.17,0,0,1,6.67,3.41v-3h2.8v17.67h-2.8v-3a8.16,8.16,0,0,1-6.67,3.42C236.44,241.58,232.79,237.69,232.79,232.34Zm15.26,0c0-3.92-2.61-6.57-6.22-6.57s-6.23,2.57-6.23,6.57,2.6,6.59,6.23,6.59S248.05,236.36,248.05,232.34Z" transform="translate(-85.52 -143.37)"/><path class="a5a78952-2d73-496e-b87e-72e43bf7d921" d="M256.94,241.18V211.06h2.8v30.12Z" transform="translate(-85.52 -143.37)"/><path class="a5a78952-2d73-496e-b87e-72e43bf7d921" d="M265.44,235.36V223.51h2.8V235c0,2.76,1.41,4,3.79,4,4,0,5.63-3.3,5.63-6.83v-8.59h2.8v17.67h-2.8v-3.06a6.6,6.6,0,0,1-6,3.46C267.65,241.58,265.44,239.1,265.44,235.36Z" transform="translate(-85.52 -143.37)"/><path class="a5a78952-2d73-496e-b87e-72e43bf7d921" d="M288.27,241.18V226.12h-4.43v-2.61h4.43v-6.86h2.8v6.86h4.38v2.61h-4.38v15.06Z" transform="translate(-85.52 -143.37)"/><path class="a5a78952-2d73-496e-b87e-72e43bf7d921" d="M321,242.38l-8.2-21.12-4.25,19.92h-2.9L312,212.67l9,22.69,8.95-22.69,6.39,28.51h-2.88l-4.28-19.92Z" transform="translate(-85.52 -143.37)"/><path class="a5a78952-2d73-496e-b87e-72e43bf7d921" d="M339,232.48a9.24,9.24,0,1,1,18.48-.14v1.17H341.9a6.11,6.11,0,0,0,6.44,5.42,5.84,5.84,0,0,0,5.61-3.22h3.13a8.7,8.7,0,0,1-8.7,5.87C342.75,241.58,339,237.54,339,232.48Zm15.54-1.34a6.39,6.39,0,0,0-12.62,0Z" transform="translate(-85.52 -143.37)"/><path class="a5a78952-2d73-496e-b87e-72e43bf7d921" d="M362,241.18V223.51h2.81v3.06a6.56,6.56,0,0,1,6-3.47c4,0,6.22,2.49,6.22,6.24v11.84h-2.81V229.73c0-2.77-1.41-4-3.76-4-4,0-5.63,3.29-5.63,6.82v8.59Z" transform="translate(-85.52 -143.37)"/><path class="a5a78952-2d73-496e-b87e-72e43bf7d921" d="M384.41,241.18V226.12H380v-2.61h4.43v-6.86h2.81v6.86h4.37v2.61h-4.37v15.06Z" transform="translate(-85.52 -143.37)"/><path class="a5a78952-2d73-496e-b87e-72e43bf7d921" d="M393.48,232.34c0-5.3,3.61-9.24,8.59-9.24a8.17,8.17,0,0,1,6.67,3.41v-3h2.8v17.67h-2.8v-3a8.16,8.16,0,0,1-6.67,3.42C397.13,241.58,393.48,237.69,393.48,232.34Zm15.26,0c0-3.92-2.61-6.57-6.22-6.57s-6.23,2.57-6.23,6.57,2.6,6.59,6.23,6.59S408.74,236.36,408.74,232.34Z" transform="translate(-85.52 -143.37)"/><path class="a5a78952-2d73-496e-b87e-72e43bf7d921" d="M417.63,241.18V211.06h2.8v30.12Z" transform="translate(-85.52 -143.37)"/></svg>